<svg xmlns="http://www.w3.org/2000/svg" viewBox="0 0 940.00 980.00"  class="diagram-architecture" data-diagram-id="20547bad-3276-44ba-8ea0-0478ba9fec5e">
  <defs>
    <marker id="arrowhead" markerWidth="10" markerHeight="7" refX="9" refY="3.5" orient="auto">
      <polygon points="0 0, 10 3.5, 0 7" fill="#8b949e"/>
    </marker>
    <marker id="diamond" markerWidth="10" markerHeight="10" refX="5" refY="5" orient="auto">
      <polygon points="0 5, 5 0, 10 5, 5 10" fill="none" stroke="#8b949e"/>
    </marker>
    <filter id="shadow" x="-20%" y="-20%" width="140%" height="140%">
      <feDropShadow dx="2" dy="2" stdDeviation="3" flood-opacity="0.3"/>
    </filter>
    <pattern id="smallGrid" width="20" height="20" patternUnits="userSpaceOnUse">
      <path d="M 20 0 L 0 0 0 20" fill="none" stroke="#21262d" stroke-width="0.5" opacity="0.3"/>
    </pattern>
  </defs>
  <rect width="100%" height="100%" fill="url(#smallGrid)"/>
  <rect x="0" y="0" width="940.00" height="980.00" fill="#0d1117"/>
  <text x="20" y="30" fill="#c9d1d9" font-family="system-ui" font-size="18" font-weight="bold">Elixir BE ↔ Agent-UI Disconnect</text>
  <rect x="540.00" y="10.00" width="220.00" height="140.00" rx="12.00" ry="12.00" fill="#58a6ff20" stroke="#58a6ff" stroke-width="2.00" opacity="0.3"/>
  <text x="550.00" y="30.00" fill="#58a6ff" font-family="system-ui" font-size="12" font-weight="bold">Frontend Layer</text>
  <rect x="360.00" y="410.00" width="880.00" height="540.00" rx="12.00" ry="12.00" fill="#23863620" stroke="#238636" stroke-width="2.00" opacity="0.3"/>
  <text x="370.00" y="430.00" fill="#238636" font-family="system-ui" font-size="12" font-weight="bold">Backend Services</text>
  <rect x="450.00" y="810.00" width="220.00" height="140.00" rx="12.00" ry="12.00" fill="#8957e520" stroke="#8957e5" stroke-width="2.00" opacity="0.3"/>
  <text x="460.00" y="830.00" fill="#8957e5" font-family="system-ui" font-size="12" font-weight="bold">Storage Layer</text>
  <g class="node" data-node-id="api-gateway">
<polygon points="605,250 695,250 740,290 695,330 605,330 560,290" fill="#0066cc" stroke="#388bfd" stroke-width="2.00" opacity="1.00"/><text x="650" y="290" text-anchor="middle" dominant-baseline="middle" font-family="system-ui, sans-serif" font-size="14" fill="#c9d1d9">API Gateway</text>  </g>
  <g class="node" data-node-id="elixir-backend">
<rect x="560.00" y="450.00" width="180.00" height="80.00" rx="8.00" ry="8.00" fill="#238636" stroke="#2ea043" stroke-width="2.00" opacity="1.00"/><text x="650" y="490" text-anchor="middle" dominant-baseline="middle" font-family="system-ui, sans-serif" font-size="14" fill="#c9d1d9">Elixir Backend</text>  </g>
  <g class="node" data-node-id="git-storage">
<polygon points="470,850 623,850 650,877 650,930 470,930" fill="#8b949e" stroke="#c9d1d9" stroke-width="2.00" opacity="1.00"/><text x="560" y="890" text-anchor="middle" dominant-baseline="middle" font-family="system-ui, sans-serif" font-size="14" fill="#c9d1d9">Git Storage</text>  </g>
  <g class="node" data-node-id="convoy-manager">
<rect x="1040.00" y="650.00" width="180.00" height="80.00" rx="8.00" ry="8.00" fill="#238636" stroke="#2ea043" stroke-width="2.00" opacity="1.00"/><text x="1130" y="690" text-anchor="middle" dominant-baseline="middle" font-family="system-ui, sans-serif" font-size="14" fill="#c9d1d9">Convoy Manager</text>  </g>
  <g class="node" data-node-id="task-manager">
<rect x="710.00" y="650.00" width="180.00" height="80.00" rx="8.00" ry="8.00" fill="#238636" stroke="#2ea043" stroke-width="2.00" opacity="1.00"/><text x="800" y="690" text-anchor="middle" dominant-baseline="middle" font-family="system-ui, sans-serif" font-size="14" fill="#c9d1d9">Task Manager</text>  </g>
  <g class="node" data-node-id="agent-ui">
<rect x="560.00" y="50.00" width="180.00" height="80.00" rx="8.00" ry="8.00" fill="#1f6feb" stroke="#58a6ff" stroke-width="2.00" opacity="1.00"/><text x="650" y="90" text-anchor="middle" dominant-baseline="middle" font-family="system-ui, sans-serif" font-size="14" fill="#c9d1d9">Agent UI</text>  </g>
  <g class="node" data-node-id="agent-orchestrator">
<rect x="380.00" y="650.00" width="180.00" height="80.00" rx="8.00" ry="8.00" fill="#238636" stroke="#2ea043" stroke-width="2.00" opacity="1.00"/><text x="470" y="690" text-anchor="middle" dominant-baseline="middle" font-family="system-ui, sans-serif" font-size="14" fill="#c9d1d9">Agent Orchestrator</text>  </g>
  <g class="node" data-node-id="message-broker">
<rect x="800.00" y="850.00" width="180.00" height="24.67" rx="4.00" ry="4.00" fill="#8957e5" stroke="#a371f7" stroke-width="2.00" opacity="1.00"/><rect x="800.00" y="876.67" width="180.00" height="24.67" rx="4.00" ry="4.00" fill="#8957e5" stroke="#a371f7" stroke-width="2.00" opacity="1.00"/><rect x="800.00" y="903.33" width="180.00" height="24.67" rx="4.00" ry="4.00" fill="#8957e5" stroke="#a371f7" stroke-width="2.00" opacity="1.00"/><text x="890" y="890" text-anchor="middle" dominant-baseline="middle" font-family="system-ui, sans-serif" font-size="14" fill="#c9d1d9">Message Broker</text>  </g>
  <g class="edge" data-edge-id="agent-ui-api-gateway">
<path d="M650.00,130.00 650.00,330.00" fill="none" stroke="#8b949e" stroke-width="2.00"/><polygon points="650.00,330.00 645.00,340.00 655.00,340.00" fill="none" stroke="#8b949e" stroke-width="2.00"/><rect x="610.00" y="220.00" width="80" height="20" rx="4" fill="#0d1117" stroke="#21262d"/><text x="650.00" y="230.00" text-anchor="middle" dominant-baseline="middle" font-family="system-ui, sans-serif" font-size="11" fill="#c9d1d9">HTTP/WebSocket</text>  </g>
  <g class="edge" data-edge-id="elixir-backend-convoy-manager">
<path d="M740.00,490.00 1220.00,690.00" fill="none" stroke="#8b949e" stroke-width="2.00"/><polygon points="1220.00,690.00 1227.31,698.46 1231.15,689.23" fill="none" stroke="#8b949e" stroke-width="2.00"/><rect x="940.00" y="580.00" width="80" height="20" rx="4" fill="#0d1117" stroke="#21262d"/><text x="980.00" y="590.00" text-anchor="middle" dominant-baseline="middle" font-family="system-ui, sans-serif" font-size="11" fill="#c9d1d9">Supervision</text>  </g>
  <g class="edge" data-edge-id="api-gateway-elixir-backend">
<path d="M650.00,330.00 650.00,530.00" fill="none" stroke="#8b949e" stroke-width="2.00"/><polygon points="650.00,530.00 645.00,540.00 655.00,540.00" fill="none" stroke="#8b949e" stroke-width="2.00"/><rect x="610.00" y="420.00" width="80" height="20" rx="4" fill="#0d1117" stroke="#21262d"/><text x="650.00" y="430.00" text-anchor="middle" dominant-baseline="middle" font-family="system-ui, sans-serif" font-size="11" fill="#c9d1d9">GenServer</text>  </g>
  <g class="edge" data-edge-id="elixir-backend-task-manager">
<path d="M650.00,530.00 800.00,730.00" fill="none" stroke="#8b949e" stroke-width="2.00"/><polygon points="800.00,730.00 802.00,741.00 810.00,735.00" fill="none" stroke="#8b949e" stroke-width="2.00"/><rect x="685.00" y="620.00" width="80" height="20" rx="4" fill="#0d1117" stroke="#21262d"/><text x="725.00" y="630.00" text-anchor="middle" dominant-baseline="middle" font-family="system-ui, sans-serif" font-size="11" fill="#c9d1d9">ETS Messages</text>  </g>
  <g class="edge" data-edge-id="elixir-backend-agent-orchestrator">
<path d="M650.00,530.00 470.00,730.00" fill="none" stroke="#8b949e" stroke-width="2.00"/><polygon points="470.00,730.00 459.59,734.09 467.03,740.78" fill="none" stroke="#8b949e" stroke-width="2.00"/><rect x="520.00" y="620.00" width="80" height="20" rx="4" fill="#0d1117" stroke="#21262d"/><text x="560.00" y="630.00" text-anchor="middle" dominant-baseline="middle" font-family="system-ui, sans-serif" font-size="11" fill="#c9d1d9">Supervision</text>  </g>
  <g class="edge" data-edge-id="agent-orchestrator-message-broker">
<path d="M560.00,690.00 980.00,890.00" fill="none" stroke="#8b949e" stroke-width="2.00"/><polygon points="980.00,890.00 986.88,898.81 991.18,889.79" fill="none" stroke="#8b949e" stroke-width="2.00"/><rect x="730.00" y="780.00" width="80" height="20" rx="4" fill="#0d1117" stroke="#21262d"/><text x="770.00" y="790.00" text-anchor="middle" dominant-baseline="middle" font-family="system-ui, sans-serif" font-size="11" fill="#c9d1d9">PubSub</text>  </g>
  <g class="edge" data-edge-id="convoy-manager-message-broker">
<path d="M1040.00,690.00 800.00,890.00" fill="none" stroke="#8b949e" stroke-width="2.00"/><polygon points="800.00,890.00 789.12,892.56 795.52,900.24" fill="none" stroke="#8b949e" stroke-width="2.00"/><rect x="880.00" y="780.00" width="80" height="20" rx="4" fill="#0d1117" stroke="#21262d"/><text x="920.00" y="790.00" text-anchor="middle" dominant-baseline="middle" font-family="system-ui, sans-serif" font-size="11" fill="#c9d1d9">PubSub</text>  </g>
  <g class="edge" data-edge-id="task-manager-git-storage">
<path d="M710.00,690.00 470.00,890.00" fill="none" stroke="#8b949e" stroke-width="2.00"/><polygon points="470.00,890.00 459.12,892.56 465.52,900.24" fill="none" stroke="#8b949e" stroke-width="2.00"/><rect x="550.00" y="780.00" width="80" height="20" rx="4" fill="#0d1117" stroke="#21262d"/><text x="590.00" y="790.00" text-anchor="middle" dominant-baseline="middle" font-family="system-ui, sans-serif" font-size="11" fill="#c9d1d9">Git Operations</text>  </g>
  <metadata>
    <diagram title="Elixir BE ↔ Agent-UI Disconnect" id="20547bad-3276-44ba-8ea0-0478ba9fec5e" kind="Architecture" created="2026-03-19T15:51:59.514036381+00:00" updated="2026-03-19T15:51:59.514036381+00:00"/>
  </metadata>
</svg>