<svg xmlns="http://www.w3.org/2000/svg" viewBox="0 0 700 560" width="700" height="560"><rect width="100%" height="100%" fill="#0d1117"/><rect x="100" y="10" width="100" height="40" rx="8" fill="#a371f7" stroke="#a371f7" stroke-width="2"/><text x="150" y="35" text-anchor="middle" fill="white" font-family="system-ui, sans-serif" font-size="12" font-weight="bold">Agent UI</text><line x1="150" y1="60" x2="150" y2="510" stroke="#a371f7" stroke-width="2" stroke-dasharray="5,5"/><rect x="350" y="10" width="100" height="40" rx="8" fill="#3fb950" stroke="#3fb950" stroke-width="2"/><text x="400" y="35" text-anchor="middle" fill="white" font-family="system-ui, sans-serif" font-size="12" font-weight="bold">Phoenix Gateway</text><line x1="400" y1="60" x2="400" y2="510" stroke="#3fb950" stroke-width="2" stroke-dasharray="5,5"/><rect x="600" y="10" width="100" height="40" rx="8" fill="#3fb950" stroke="#3fb950" stroke-width="2"/><text x="650" y="35" text-anchor="middle" fill="white" font-family="system-ui, sans-serif" font-size="12" font-weight="bold">Elixir Backend</text><line x1="650" y1="60" x2="650" y2="510" stroke="#3fb950" stroke-width="2" stroke-dasharray="5,5"/><line x1="150" y1="100" x2="385" y2="100" stroke="#c9d1d9" stroke-width="2"/><polygon points="385,100 375,95 375,105" fill="#c9d1d9"/><rect x="235" y="90" width="80" height="20" rx="4" fill="#0d1117" stroke="#21262d"/><text x="275" y="100" text-anchor="middle" dominant-baseline="middle" fill="#c9d1d9" font-family="system-ui, sans-serif" font-size="10">WebSocket Connect</text><text x="110" y="104" fill="#6e7681" font-family="system-ui, sans-serif" font-size="10">1</text><line x1="150" y1="150" x2="385" y2="150" stroke="#8b949e" stroke-width="2"/><polygon points="385,150 375,145 375,155" fill="#8b949e"/><rect x="235" y="140" width="80" height="20" rx="4" fill="#0d1117" stroke="#21262d"/><text x="275" y="150" text-anchor="middle" dominant-baseline="middle" fill="#c9d1d9" font-family="system-ui, sans-serif" font-size="10">Task Create</text><text x="110" y="154" fill="#6e7681" font-family="system-ui, sans-serif" font-size="10">2</text><line x1="400" y1="200" x2="635" y2="200" stroke="#c9d1d9" stroke-width="2"/><polygon points="635,200 625,195 625,205" fill="#c9d1d9"/><rect x="485" y="190" width="80" height="20" rx="4" fill="#0d1117" stroke="#21262d"/><text x="525" y="200" text-anchor="middle" dominant-baseline="middle" fill="#c9d1d9" font-family="system-ui, sans-serif" font-size="10">GenServer Call</text><text x="110" y="204" fill="#6e7681" font-family="system-ui, sans-serif" font-size="10">3</text><line x1="650" y1="250" x2="415" y2="250" stroke="#3fb950" stroke-width="2"/><polygon points="415,250 425,245 425,255" fill="#3fb950"/><rect x="485" y="240" width="80" height="20" rx="4" fill="#0d1117" stroke="#21262d"/><text x="525" y="250" text-anchor="middle" dominant-baseline="middle" fill="#c9d1d9" font-family="system-ui, sans-serif" font-size="10">Response</text><text x="110" y="254" fill="#6e7681" font-family="system-ui, sans-serif" font-size="10">4</text><line x1="400" y1="300" x2="165" y2="300" stroke="#8b949e" stroke-width="2"/><polygon points="165,300 175,295 175,305" fill="#8b949e"/><rect x="235" y="290" width="80" height="20" rx="4" fill="#0d1117" stroke="#21262d"/><text x="275" y="300" text-anchor="middle" dominant-baseline="middle" fill="#c9d1d9" font-family="system-ui, sans-serif" font-size="10">Socket.IO Event</text><text x="110" y="304" fill="#6e7681" font-family="system-ui, sans-serif" font-size="10">5</text><line x1="150" y1="350" x2="385" y2="350" stroke="#c9d1d9" stroke-width="2"/><polygon points="385,350 375,345 375,355" fill="#c9d1d9"/><rect x="235" y="340" width="80" height="20" rx="4" fill="#0d1117" stroke="#21262d"/><text x="275" y="350" text-anchor="middle" dominant-baseline="middle" fill="#c9d1d9" font-family="system-ui, sans-serif" font-size="10">Agent Spawn</text><text x="110" y="354" fill="#6e7681" font-family="system-ui, sans-serif" font-size="10">6</text><line x1="400" y1="400" x2="165" y2="400" stroke="#f85149" stroke-width="2"/><polygon points="165,400 175,395 175,405" fill="#f85149"/><rect x="235" y="390" width="80" height="20" rx="4" fill="#0d1117" stroke="#21262d"/><text x="275" y="400" text-anchor="middle" dominant-baseline="middle" fill="#c9d1d9" font-family="system-ui, sans-serif" font-size="10">ERROR: Timeout</text><text x="110" y="404" fill="#6e7681" font-family="system-ui, sans-serif" font-size="10">7</text></svg>